HIERARCHY
ROOT Hips
{
	OFFSET 0.00000 0.00000 0.00000
	CHANNELS 6 Xposition Yposition Zposition Zrotation Yrotation Xrotation 
	JOINT LHipJoint
	{
		OFFSET 0 0 0
		CHANNELS 3 Zrotation Yrotation Xrotation
		JOINT LeftHip
		{
			OFFSET 1.60223 -1.58443 0.78595
			CHANNELS 3 Zrotation Yrotation Xrotation
			JOINT LeftKnee
			{
				OFFSET 2.21690 -6.09089 0.00000
				CHANNELS 3 Zrotation Yrotation Xrotation
				JOINT LeftAnkle
				{
					OFFSET 2.34805 -6.45122 0.00000
					CHANNELS 3 Zrotation Yrotation Xrotation
					JOINT LeftToe
					{
						OFFSET 0.35452 -0.97402 1.38549
						CHANNELS 3 Zrotation Yrotation Xrotation
						End Site
						{
							OFFSET 0.00000 -0.00000 0.82816
						}
					}
				}
			}
		}
	}
	JOINT RHipJoint
	{
		OFFSET 0 0 0
		CHANNELS 3 Zrotation Yrotation Xrotation
		JOINT RightHip
		{
			OFFSET -1.56524 -1.58443 0.78595
			CHANNELS 3 Zrotation Yrotation Xrotation
			JOINT RightKnee
			{
				OFFSET -2.15558 -5.92241 0.00000
				CHANNELS 3 Zrotation Yrotation Xrotation
				JOINT RightAnkle
				{
					OFFSET -2.35077 -6.45870 0.00000
					CHANNELS 3 Zrotation Yrotation Xrotation
					JOINT RightToe
					{
						OFFSET -0.26910 -0.73935 1.33295
						CHANNELS 3 Zrotation Yrotation Xrotation
						End Site
						{
							OFFSET -0.00000 -0.00000 0.75962
						}
					}
				}
			}
		}
	}
	JOINT lowerback
	{
		OFFSET 0 0 0
		CHANNELS 3 Zrotation Yrotation Xrotation
		JOINT Chest
		{
			OFFSET -0.05489 1.97104 -0.02993
			CHANNELS 3 Zrotation Yrotation Xrotation
			JOINT Chest2
			{
				OFFSET -0.00702 1.94230 0.13626
				CHANNELS 3 Zrotation Yrotation Xrotation
				JOINT lowerneck
				{
					OFFSET 0 0 0
					CHANNELS 3 Zrotation Yrotation Xrotation
					JOINT Neck
					{
						OFFSET -0.07858 1.62869 -0.02510
						CHANNELS 3 Zrotation Yrotation Xrotation
						JOINT Head
						{
							OFFSET 0.13978 1.59213 -0.29859
							CHANNELS 3 Zrotation Yrotation Xrotation
							End Site
							{
								OFFSET 0.05353 1.64420 -0.10000
							}
						}
					}
				}
				JOINT LeftCollar
				{
					OFFSET 0 0 0
					CHANNELS 3 Zrotation Yrotation Xrotation
					JOINT LeftShoulder
					{
						OFFSET 3.48263 1.15278 0.52941
CHANNELS 3 Zrotation Xrotation Yrotation
						JOINT LeftElbow
						{
OFFSET 0 -4.592070 -0.000000
CHANNELS 3 Zrotation Xrotation Yrotation
							JOINT LeftWrist
							{
OFFSET 0 -2.981090 -0.000000
CHANNELS 3 Zrotation Xrotation Yrotation
								JOINT lhand
								{
									OFFSET 0 0 0
CHANNELS 3 Zrotation Xrotation Yrotation
									JOINT LFingers
									{
OFFSET 0 -0.480200 -0.000000
CHANNELS 3 Zrotation Xrotation Yrotation
										End Site
										{
OFFSET 0 -0.387150 -0.000000
										}
									}
								}
								JOINT LThumb
								{
OFFSET 0 0.000000 0.000000
CHANNELS 3 Zrotation Xrotation Yrotation
									End Site
									{
OFFSET 0 -0.393060 0.393060
									}
								}
							}
						}
					}
				}
				JOINT RightCollar
				{
					OFFSET 0 0 0
					CHANNELS 3 Zrotation Yrotation Xrotation
					JOINT RightShoulder
					{
						OFFSET -3.52496 1.12722 0.24548
CHANNELS 3 Zrotation Xrotation Yrotation
						JOINT RightElbow
						{
OFFSET 0 -4.765080 -0.000000
CHANNELS 3 Zrotation Xrotation Yrotation
							JOINT RightWrist
							{
OFFSET 0 -2.789020 -0.000000
CHANNELS 3 Zrotation Xrotation Yrotation
								JOINT rhand
								{
									OFFSET 0 0 0
CHANNELS 3 Zrotation Xrotation Yrotation
									JOINT RFingers
									{
OFFSET 0 -0.721300 -0.000000
CHANNELS 3 Zrotation Xrotation Yrotation
										End Site
										{
OFFSET 0 -0.581530 -0.000000
										}
									}
								}
								JOINT RThumb
								{
OFFSET 0 0.000000 0.000000
CHANNELS 3 Zrotation Xrotation Yrotation
									End Site
									{
OFFSET 0 -0.590410 0.590410
									}
								}
							}
						}
					}
				}
			}
		}
	}
}
MOTION
Frames: 8
Frame Time: 0.008333333333333333
-9.259600 15.824204 4.675020 -1152.827195 84.043344 -74.037605 0.000000 0.000000 0.000000 -22.603271 7.735613 -13.980200 9.701760 17.213517 58.450634 0.007774 -6.031225 -4.127789 8.842852 -16.703883 -55.542549 0.000000 0.000000 0.000000 31.683604 -13.738000 -29.106680 -3.023606 -10.733124 31.384980 -0.083882 26.179804 -19.063554 -1.067935 6.563062 -18.429635 10.758466 3.568507 7.103608 -2.415241 5.672091 -2.360574 -9.233820 2.398153 -5.221467 -5.682154 -8.512281 -8.753076 10.267864 -12.616377 19.662031 3.057652 -5.300924 8.587789 0.000000 0.000000 0.000000 21.162390 -1.796368 -0.818805 145.701745 -44.299254 105.677235 29.314899 36.321740 -40.688355 0.000000 0.000000 0.000000 -7.125000 0.000000 0.000000 -12.236778 74.275806 8.535240 0.000000 0.000000 0.000000 11.334548 -5.521726 11.458276 -17.515721 -27.531755 -4.323526 95.745742 -75.432131 81.909011 0.000000 0.000000 0.000000 7.125000 0.000000 0.000000 39.059046 -52.009431 57.483034
-8.275701 15.767326 4.642299 -1147.115225 78.254048 -67.707716 0.000000 0.000000 0.000000 -13.109783 10.726278 -27.284437 15.384428 19.474438 76.387758 -0.066128 -9.706911 12.627967 10.642389 -17.755546 -61.614704 0.000000 0.000000 0.000000 37.826295 -21.280407 -26.624375 -2.469927 -9.780930 28.271980 0.536338 34.012143 -21.548312 -0.683810 5.286962 -14.728853 14.190824 3.538368 7.441208 -1.303181 6.155896 -3.139658 -10.074154 2.429474 -5.973744 -6.302424 -8.225962 -9.219628 11.795142 -12.689266 23.088923 3.697945 -5.023697 10.033473 0.000000 0.000000 0.000000 21.519487 4.890984 11.340217 149.256412 -41.520755 108.099859 34.851052 35.624723 -34.703865 0.000000 0.000000 0.000000 -7.125000 0.000000 0.000000 2.895926 70.116707 -1.723130 0.000000 0.000000 0.000000 9.203771 -0.888822 15.156968 -19.448764 -29.969721 -5.254487 116.703017 -91.760148 79.477532 0.000000 0.000000 0.000000 7.125000 0.000000 0.000000 43.558745 -54.419267 63.670519
-7.363184 15.665500 4.502712 -1150.800851 72.390016 -70.250051 0.000000 0.000000 0.000000 -3.811301 7.224741 -37.785213 18.579979 19.950417 85.844788 -0.171040 -9.547888 9.917675 9.125649 -16.885415 -56.519888 0.000000 0.000000 0.000000 42.239878 -22.628851 -22.456127 -2.041902 -8.952739 25.647698 0.578237 36.121735 -23.081761 -0.731130 5.462477 -15.232544 19.107861 3.617984 9.215350 0.113316 7.536594 -4.819633 -11.643175 2.585928 -8.250825 -7.024474 -8.335439 -7.788262 11.971576 -12.898826 25.041698 3.950935 -5.097348 10.554209 0.000000 0.000000 0.000000 18.396750 10.975818 22.318764 151.104497 -39.927468 109.306382 40.781780 33.372374 -28.941957 0.000000 0.000000 0.000000 -7.125000 0.000000 0.000000 13.796299 65.620434 -6.917531 0.000000 0.000000 0.000000 6.595174 3.490212 19.038363 -22.662050 -33.714534 -6.950936 123.437183 -96.759986 77.058098 0.000000 0.000000 0.000000 7.125000 0.000000 0.000000 47.000696 -55.504129 68.540849
-6.409922 15.611023 4.333886 -1148.982955 72.963585 -65.894292 0.000000 0.000000 0.000000 -3.273181 2.025939 -45.718998 17.936604 19.896146 83.956584 0.011278 -4.361372 -3.422238 6.289900 -14.694695 -46.117518 0.000000 0.000000 0.000000 40.092716 -24.201188 -22.993022 -2.376230 -9.609138 27.720259 -0.141976 37.774345 -27.553311 -0.823928 5.791093 -16.179566 17.284970 5.460102 6.827460 -0.117620 9.291126 -5.256282 -10.701895 3.678580 -6.938523 -8.022471 -8.943637 -7.334873 12.601007 -13.741246 25.079672 4.247629 -5.510674 10.709815 0.000000 0.000000 0.000000 13.728071 12.879276 30.081187 151.464006 -39.605051 109.536364 47.582459 34.732029 -26.351475 0.000000 0.000000 0.000000 -7.125000 0.000000 0.000000 24.192753 64.708989 -11.866257 0.000000 0.000000 0.000000 4.814646 2.951936 20.411815 -25.489469 -36.698284 -8.581433 127.595269 -100.875255 76.871898 0.000000 0.000000 0.000000 7.125000 0.000000 0.000000 47.680874 -56.289810 69.158173
-5.448811 15.557067 4.103651 -1149.304157 74.440349 -64.772456 0.000000 0.000000 0.000000 -4.942448 0.663294 -49.737494 14.604728 19.278018 74.036246 0.547289 0.634632 -14.176760 2.706241 -10.152050 -29.518450 0.000000 0.000000 0.000000 36.268565 -18.507862 -18.602693 -2.637232 -10.083046 29.246178 -2.279824 27.986860 -31.432292 -1.210158 6.973144 -19.637987 16.832981 7.687201 5.952627 -1.452503 11.991429 -5.785121 -11.810106 5.086307 -5.989525 -9.461356 -9.814403 -6.287880 14.708740 -15.207337 24.665642 5.092320 -6.117246 10.865285 0.000000 0.000000 0.000000 12.205020 12.117075 35.767602 151.956545 -39.156170 109.848834 46.456097 31.546415 -26.517151 0.000000 0.000000 0.000000 -7.125000 0.000000 0.000000 22.402022 64.553302 -10.864361 0.000000 0.000000 0.000000 4.171955 0.166686 22.288921 -29.275473 -40.260000 -10.939891 144.228757 -116.973332 79.533040 0.000000 0.000000 0.000000 7.125000 0.000000 0.000000 45.030733 -58.601973 63.875150
-4.445052 15.449275 3.786289 -1159.922471 75.809985 -74.648027 0.000000 0.000000 0.000000 -8.460583 1.240144 -51.316788 10.635732 17.751989 61.592703 1.164456 4.983886 -22.747981 0.000805 0.025869 0.071152 0.000000 0.000000 0.000000 33.345874 -21.980482 -16.431200 -2.716331 -10.221058 29.695609 -2.813550 27.316716 -33.545746 -1.594251 7.964084 -22.605148 18.655529 9.689408 4.754437 -2.646141 14.521732 -5.921867 -13.628250 6.480597 -3.981807 -9.302644 -10.343597 -6.210464 14.638056 -15.861819 24.395377 4.938434 -6.389833 10.827052 0.000000 0.000000 0.000000 9.622077 12.006441 37.756868 151.623061 -39.460891 109.637581 46.991734 29.657159 -25.257966 0.000000 0.000000 0.000000 -7.125000 0.000000 0.000000 22.843489 63.224747 -10.379287 0.000000 0.000000 0.000000 1.296651 -6.891727 25.079119 -33.387082 -43.625274 -13.688411 167.873807 -139.920645 80.585814 0.000000 0.000000 0.000000 7.125000 0.000000 0.000000 42.373190 -61.049382 58.787974
-3.405902 15.416530 3.401966 -1185.703840 76.193722 -100.785856 0.000000 0.000000 0.000000 -15.820078 5.103957 -51.861111 8.016017 16.126514 52.613137 0.764805 6.851706 -20.382560 0.083252 1.642938 4.525085 0.000000 0.000000 0.000000 30.515542 -23.783120 -10.867835 -2.508134 -9.852610 28.500861 -2.640002 21.554838 -30.939676 -2.030679 8.923205 -25.559819 20.336897 10.362269 3.788493 -2.474409 15.291651 -5.496358 -13.887901 7.028722 -2.373659 -7.940304 -8.091931 -8.281409 13.047575 -12.289128 23.834383 4.548557 -4.729450 10.283414 0.000000 0.000000 0.000000 4.722978 13.184812 38.246167 149.401068 -41.396819 108.194691 46.675080 28.991952 -24.128331 0.000000 0.000000 0.000000 -7.125000 0.000000 0.000000 22.004968 61.771636 -9.232690 0.000000 0.000000 0.000000 -4.031573 -17.622506 30.048113 -37.496459 -46.509967 -16.600798 -171.523847 198.271821 79.675479 0.000000 0.000000 0.000000 7.125000 0.000000 0.000000 40.239553 -63.409628 54.698051
-2.252024 15.499464 2.926807 -1215.840851 74.137512 -130.538312 0.000000 0.000000 0.000000 -23.946543 8.761895 -47.409988 6.362620 14.769965 46.418835 1.000795 1.050554 -19.320923 2.211715 9.276013 26.675293 0.000000 0.000000 0.000000 28.032369 -18.096394 -5.977715 -3.021862 -10.728704 31.372069 -1.380487 11.849338 -21.360095 -3.178963 10.978516 -32.208211 19.592915 11.178396 0.610883 -1.975658 15.656400 -5.412315 -12.140863 7.439293 -0.689675 -6.984919 -2.415303 -10.174379 14.345561 -4.425101 23.588641 5.823482 -0.762806 9.563182 0.000000 0.000000 0.000000 0.599515 14.107575 36.118221 144.750709 -44.986739 105.009740 43.939347 28.459911 -24.417706 0.000000 0.000000 0.000000 -7.125000 0.000000 0.000000 18.105865 61.300209 -7.324317 0.000000 0.000000 0.000000 -7.222816 -29.789302 33.348940 -41.065233 -48.687830 -19.235762 -176.103264 200.158071 80.543286 0.000000 0.000000 0.000000 7.125000 0.000000 0.000000 40.158973 -62.421271 55.025430
